<svg width="22px" height="18px" viewBox="0 0 26 20" version="1.1" xmlns="http://www.w3.org/2000/svg" xmlns:xlink="http://www.w3.org/1999/xlink">
							    <!-- Generator: Sketch 48.1 (47250) - http://www.bohemiancoding.com/sketch -->
							    <desc>Created with Sketch.</desc>
							    <defs></defs>
							    <g id="header-v-right" stroke="none" stroke-width="1" fill="none" fill-rule="evenodd" transform="translate(-1228.000000, -25.000000)">
							        <g id="header-v-right-icon" fill="#9BA0AD">
							            <g id="sidemenu">
							                <g transform="translate(1228.000000, 25.000000)">
							                    <path d="M1.65305487,0.0816707806 L24.3149344,0.0816707806 C25.2278914,0.0816707806 25.9679892,0.821768655 25.9679892,1.73472565 C25.9679892,2.64768265 25.2278914,3.38778052 24.3149344,3.38778052 L1.65305487,3.38778052 C0.740097875,3.38778052 1.11804986e-16,2.64768265 0,1.73472565 C-1.11804986e-16,0.821768655 0.740097875,0.0816707806 1.65305487,0.0816707806 Z M1.65305487,8.34694513 L16.1342177,8.34694513 C17.0471747,8.34694513 17.7872725,9.087043 17.7872725,10 C17.7872725,10.912957 17.0471747,11.6530549 16.1342177,11.6530549 L1.65305487,11.6530549 C0.740097875,11.6530549 1.11804986e-16,10.912957 0,10 C-1.11804986e-16,9.087043 0.740097875,8.34694513 1.65305487,8.34694513 Z M22.1076003,8.34694513 L24.3160359,8.34694513 C25.2289928,8.34694513 25.9690907,9.087043 25.9690907,10 C25.9690907,10.912957 25.2289928,11.6530549 24.3160359,11.6530549 L22.1076003,11.6530549 C21.1946433,11.6530549 20.4545455,10.912957 20.4545455,10 C20.4545455,9.087043 21.1946433,8.34694513 22.1076003,8.34694513 Z M1.65305487,16.6122195 L24.3149344,16.6122195 C25.2278914,16.6122195 25.9679892,17.3523174 25.9679892,18.2652743 C25.9679892,19.1782313 25.2278914,19.9183292 24.3149344,19.9183292 L1.65305487,19.9183292 C0.740097875,19.9183292 1.11804986e-16,19.1782313 0,18.2652743 C-1.11804986e-16,17.3523174 0.740097875,16.6122195 1.65305487,16.6122195 Z" id="Combined-Shape6"></path>
							                </g>
							            </g>
							        </g>
							    </g>
							</svg>
